<?xml version="1.0" encoding="UTF-8" standalone="no"?>
<!DOCTYPE svg PUBLIC "-//W3C//DTD SVG 1.1//EN"
 "http://www.w3.org/Graphics/SVG/1.1/DTD/svg11.dtd">
<!-- Generated by graphviz version 2.43.0 (0)
 -->
<!-- Title: dependency&#45;cruiser output Pages: 1 -->
<svg width="371pt" height="196pt"
 viewBox="0.00 0.00 371.00 196.00" xmlns="http://www.w3.org/2000/svg" xmlns:xlink="http://www.w3.org/1999/xlink">
<g id="graph0" class="graph" transform="scale(1 1) rotate(0) translate(4 192)">
<title>dependency&#45;cruiser output</title>
<polygon fill="white" stroke="transparent" points="-4,4 -4,-192 367,-192 367,4 -4,4"/>
<g id="clust1" class="cluster">
<title>cluster_src</title>
<path fill="#ffffff" stroke="black" stroke-width="2" d="M20,-8C20,-8 343,-8 343,-8 349,-8 355,-14 355,-20 355,-20 355,-168 355,-168 355,-174 349,-180 343,-180 343,-180 20,-180 20,-180 14,-180 8,-174 8,-168 8,-168 8,-20 8,-20 8,-14 14,-8 20,-8"/>
<text text-anchor="middle" x="181.5" y="-168.8" font-family="Helvetica,sans-Serif" font-weight="bold" font-size="9.00">src</text>
</g>
<g id="clust2" class="cluster">
<title>cluster_src/config</title>
<path fill="#ffffff" stroke="black" stroke-width="2" d="M39.5,-102C39.5,-102 103.5,-102 103.5,-102 109.5,-102 115.5,-108 115.5,-114 115.5,-114 115.5,-142 115.5,-142 115.5,-148 109.5,-154 103.5,-154 103.5,-154 39.5,-154 39.5,-154 33.5,-154 27.5,-148 27.5,-142 27.5,-142 27.5,-114 27.5,-114 27.5,-108 33.5,-102 39.5,-102"/>
<text text-anchor="middle" x="71.5" y="-142.8" font-family="Helvetica,sans-Serif" font-weight="bold" font-size="9.00">config</text>
</g>
<g id="clust3" class="cluster">
<title>cluster_src/services</title>
<path fill="#ffffff" stroke="black" stroke-width="2" d="M28,-42C28,-42 115,-42 115,-42 121,-42 127,-48 127,-54 127,-54 127,-82 127,-82 127,-88 121,-94 115,-94 115,-94 28,-94 28,-94 22,-94 16,-88 16,-82 16,-82 16,-54 16,-54 16,-48 22,-42 28,-42"/>
<text text-anchor="middle" x="71.5" y="-82.8" font-family="Helvetica,sans-Serif" font-weight="bold" font-size="9.00">services</text>
</g>
<g id="clust4" class="cluster">
<title>cluster_src/store</title>
<path fill="#ffffff" stroke="black" stroke-width="2" d="M174.5,-102C174.5,-102 220.5,-102 220.5,-102 226.5,-102 232.5,-108 232.5,-114 232.5,-114 232.5,-142 232.5,-142 232.5,-148 226.5,-154 220.5,-154 220.5,-154 174.5,-154 174.5,-154 168.5,-154 162.5,-148 162.5,-142 162.5,-142 162.5,-114 162.5,-114 162.5,-108 168.5,-102 174.5,-102"/>
<text text-anchor="middle" x="197.5" y="-142.8" font-family="Helvetica,sans-Serif" font-weight="bold" font-size="9.00">store</text>
</g>
<g id="clust5" class="cluster">
<title>cluster_src/views</title>
<path fill="#ffffff" stroke="black" stroke-width="2" d="M280,-53C280,-53 335,-53 335,-53 341,-53 347,-59 347,-65 347,-65 347,-123 347,-123 347,-129 341,-135 335,-135 335,-135 280,-135 280,-135 274,-135 268,-129 268,-123 268,-123 268,-65 268,-65 268,-59 274,-53 280,-53"/>
<text text-anchor="middle" x="307.5" y="-123.8" font-family="Helvetica,sans-Serif" font-weight="bold" font-size="9.00">views</text>
</g>
<!-- src/App.vue -->
<g id="node1" class="node">
<title>src/App.vue</title>
<g id="a_node1"><a xlink:href="src/App.vue" xlink:title="App.vue">
<path fill="#41f083" stroke="black" d="M218.5,-34C218.5,-34 176.5,-34 176.5,-34 173.5,-34 170.5,-31 170.5,-28 170.5,-28 170.5,-22 170.5,-22 170.5,-19 173.5,-16 176.5,-16 176.5,-16 218.5,-16 218.5,-16 221.5,-16 224.5,-19 224.5,-22 224.5,-22 224.5,-28 224.5,-28 224.5,-31 221.5,-34 218.5,-34"/>
<text text-anchor="middle" x="197.5" y="-22.8" font-family="Helvetica,sans-Serif" font-size="9.00">App.vue</text>
</a>
</g>
</g>
<!-- src/config/elementUi.js -->
<g id="node2" class="node">
<title>src/config/elementUi.js</title>
<g id="a_node2"><a xlink:href="src/config/elementUi.js" xlink:title="elementUi.js">
<path fill="#ccffcc" stroke="black" d="M101.5,-128C101.5,-128 41.5,-128 41.5,-128 38.5,-128 35.5,-125 35.5,-122 35.5,-122 35.5,-116 35.5,-116 35.5,-113 38.5,-110 41.5,-110 41.5,-110 101.5,-110 101.5,-110 104.5,-110 107.5,-113 107.5,-116 107.5,-116 107.5,-122 107.5,-122 107.5,-125 104.5,-128 101.5,-128"/>
<text text-anchor="middle" x="71.5" y="-116.8" font-family="Helvetica,sans-Serif" font-size="9.00">elementUi.js</text>
</a>
</g>
</g>
<!-- src/main.js -->
<g id="node3" class="node">
<title>src/main.js</title>
<g id="a_node3"><a xlink:href="src/main.js" xlink:title="main.js">
<path fill="#ffffcc" stroke="black" d="M92.5,-34C92.5,-34 50.5,-34 50.5,-34 47.5,-34 44.5,-31 44.5,-28 44.5,-28 44.5,-22 44.5,-22 44.5,-19 47.5,-16 50.5,-16 50.5,-16 92.5,-16 92.5,-16 95.5,-16 98.5,-19 98.5,-22 98.5,-22 98.5,-28 98.5,-28 98.5,-31 95.5,-34 92.5,-34"/>
<text text-anchor="middle" x="71.5" y="-22.8" font-family="Helvetica,sans-Serif" font-size="9.00">main.js</text>
</a>
</g>
</g>
<!-- src/main.js&#45;&gt;src/App.vue -->
<g id="edge1" class="edge">
<title>src/main.js&#45;&gt;src/App.vue</title>
<path fill="none" stroke="#000000" stroke-width="2" stroke-opacity="0.200000" d="M98.8,-25C117.87,-25 143.77,-25 164.12,-25"/>
<polygon fill="#000000" fill-opacity="0.200000" stroke="#000000" stroke-width="2" stroke-opacity="0.200000" points="164.24,-27.1 170.24,-25 164.24,-22.9 164.24,-27.1"/>
</g>
<!-- src/registerServiceWorker.js -->
<g id="node4" class="node">
<title>src/registerServiceWorker.js</title>
<g id="a_node4"><a xlink:href="src/registerServiceWorker.js" xlink:title="registerServiceWorker.js">
<path fill="#ffffcc" stroke="black" d="M254,-64C254,-64 141,-64 141,-64 138,-64 135,-61 135,-58 135,-58 135,-52 135,-52 135,-49 138,-46 141,-46 141,-46 254,-46 254,-46 257,-46 260,-49 260,-52 260,-52 260,-58 260,-58 260,-61 257,-64 254,-64"/>
<text text-anchor="middle" x="197.5" y="-52.8" font-family="Helvetica,sans-Serif" font-size="9.00">registerServiceWorker.js</text>
</a>
</g>
</g>
<!-- src/main.js&#45;&gt;src/registerServiceWorker.js -->
<g id="edge2" class="edge">
<title>src/main.js&#45;&gt;src/registerServiceWorker.js</title>
<path fill="none" stroke="#000000" stroke-width="2" stroke-opacity="0.200000" d="M98.8,-31.36C114.51,-35.16 134.86,-40.09 152.92,-44.46"/>
<polygon fill="#000000" fill-opacity="0.200000" stroke="#000000" stroke-width="2" stroke-opacity="0.200000" points="152.62,-46.55 158.95,-45.92 153.61,-42.46 152.62,-46.55"/>
</g>
<!-- src/router.js -->
<g id="node5" class="node">
<title>src/router.js</title>
<g id="a_node5"><a xlink:href="src/router.js" xlink:title="router.js">
<path fill="#ffffcc" stroke="black" d="M218.5,-94C218.5,-94 176.5,-94 176.5,-94 173.5,-94 170.5,-91 170.5,-88 170.5,-88 170.5,-82 170.5,-82 170.5,-79 173.5,-76 176.5,-76 176.5,-76 218.5,-76 218.5,-76 221.5,-76 224.5,-79 224.5,-82 224.5,-82 224.5,-88 224.5,-88 224.5,-91 221.5,-94 218.5,-94"/>
<text text-anchor="middle" x="197.5" y="-82.8" font-family="Helvetica,sans-Serif" font-size="9.00">router.js</text>
</a>
</g>
</g>
<!-- src/main.js&#45;&gt;src/router.js -->
<g id="edge3" class="edge">
<title>src/main.js&#45;&gt;src/router.js</title>
<path fill="none" stroke="#000000" stroke-width="2" stroke-opacity="0.200000" d="M98.6,-26.15C108.67,-27.89 119.54,-31.54 127,-39 137.07,-49.06 124.87,-60.01 135,-70 142.72,-77.61 153.62,-81.59 164.1,-83.6"/>
<polygon fill="#000000" fill-opacity="0.200000" stroke="#000000" stroke-width="2" stroke-opacity="0.200000" points="163.95,-85.7 170.2,-84.56 164.6,-81.55 163.95,-85.7"/>
</g>
<!-- src/store/store.js -->
<g id="node6" class="node">
<title>src/store/store.js</title>
<g id="a_node6"><a xlink:href="src/store/store.js" xlink:title="store.js">
<path fill="#ffffcc" stroke="black" d="M218.5,-128C218.5,-128 176.5,-128 176.5,-128 173.5,-128 170.5,-125 170.5,-122 170.5,-122 170.5,-116 170.5,-116 170.5,-113 173.5,-110 176.5,-110 176.5,-110 218.5,-110 218.5,-110 221.5,-110 224.5,-113 224.5,-116 224.5,-116 224.5,-122 224.5,-122 224.5,-125 221.5,-128 218.5,-128"/>
<text text-anchor="middle" x="197.5" y="-116.8" font-family="Helvetica,sans-Serif" font-size="9.00">store.js</text>
</a>
</g>
</g>
<!-- src/main.js&#45;&gt;src/store/store.js -->
<g id="edge4" class="edge">
<title>src/main.js&#45;&gt;src/store/store.js</title>
<path fill="none" stroke="#000000" stroke-width="2" stroke-opacity="0.200000" d="M98.55,-25.58C108.86,-27.19 119.92,-30.91 127,-39 146.75,-61.56 114.76,-83.87 135,-106 142.39,-114.08 153.43,-117.82 164.12,-119.39"/>
<polygon fill="#000000" fill-opacity="0.200000" stroke="#000000" stroke-width="2" stroke-opacity="0.200000" points="164.16,-121.5 170.35,-120.07 164.62,-117.33 164.16,-121.5"/>
</g>
<!-- src/views/About.vue -->
<g id="node7" class="node">
<title>src/views/About.vue</title>
<g id="a_node7"><a xlink:href="src/views/About.vue" xlink:title="About.vue">
<path fill="#41f083" stroke="black" d="M333,-109C333,-109 282,-109 282,-109 279,-109 276,-106 276,-103 276,-103 276,-97 276,-97 276,-94 279,-91 282,-91 282,-91 333,-91 333,-91 336,-91 339,-94 339,-97 339,-97 339,-103 339,-103 339,-106 336,-109 333,-109"/>
<text text-anchor="middle" x="307.5" y="-97.8" font-family="Helvetica,sans-Serif" font-size="9.00">About.vue</text>
</a>
</g>
</g>
<!-- src/router.js&#45;&gt;src/views/About.vue -->
<g id="edge5" class="edge">
<title>src/router.js&#45;&gt;src/views/About.vue</title>
<path fill="none" stroke="#000000" stroke-width="2" stroke-opacity="0.200000" d="M224.64,-88.63C238.08,-90.5 254.69,-92.8 269.42,-94.85"/>
<polygon fill="#000000" fill-opacity="0.200000" stroke="#000000" stroke-width="2" stroke-opacity="0.200000" points="269.38,-96.96 275.61,-95.71 269.96,-92.8 269.38,-96.96"/>
</g>
<!-- src/views/Home.vue -->
<g id="node8" class="node">
<title>src/views/Home.vue</title>
<g id="a_node8"><a xlink:href="src/views/Home.vue" xlink:title="Home.vue">
<path fill="#41f083" stroke="black" d="M332.5,-79C332.5,-79 282.5,-79 282.5,-79 279.5,-79 276.5,-76 276.5,-73 276.5,-73 276.5,-67 276.5,-67 276.5,-64 279.5,-61 282.5,-61 282.5,-61 332.5,-61 332.5,-61 335.5,-61 338.5,-64 338.5,-67 338.5,-67 338.5,-73 338.5,-73 338.5,-76 335.5,-79 332.5,-79"/>
<text text-anchor="middle" x="307.5" y="-67.8" font-family="Helvetica,sans-Serif" font-size="9.00">Home.vue</text>
</a>
</g>
</g>
<!-- src/router.js&#45;&gt;src/views/Home.vue -->
<g id="edge6" class="edge">
<title>src/router.js&#45;&gt;src/views/Home.vue</title>
<path fill="none" stroke="#000000" stroke-width="2" stroke-opacity="0.200000" d="M224.64,-81.37C238.3,-79.47 255.23,-77.12 270.14,-75.05"/>
<polygon fill="#000000" fill-opacity="0.200000" stroke="#000000" stroke-width="2" stroke-opacity="0.200000" points="270.74,-77.09 276.39,-74.18 270.16,-72.93 270.74,-77.09"/>
</g>
<!-- src/services/cryptoCurrency.js -->
<g id="node9" class="node">
<title>src/services/cryptoCurrency.js</title>
<g id="a_node9"><a xlink:href="src/services/cryptoCurrency.js" xlink:title="cryptoCurrency.js">
<path fill="#ccffcc" stroke="black" d="M113,-68C113,-68 30,-68 30,-68 27,-68 24,-65 24,-62 24,-62 24,-56 24,-56 24,-53 27,-50 30,-50 30,-50 113,-50 113,-50 116,-50 119,-53 119,-56 119,-56 119,-62 119,-62 119,-65 116,-68 113,-68"/>
<text text-anchor="middle" x="71.5" y="-56.8" font-family="Helvetica,sans-Serif" font-size="9.00">cryptoCurrency.js</text>
</a>
</g>
</g>
</g>
</svg>
